<svg width="24" height="24" viewBox="0 0 24 24" fill="none" xmlns="http://www.w3.org/2000/svg">
<path d="M12.97 8.53C12.8963 8.46134 12.8372 8.37854 12.7962 8.28654C12.7552 8.19454 12.7332 8.09523 12.7314 7.99452C12.7296 7.89382 12.7482 7.79379 12.7859 7.7004C12.8236 7.60701 12.8797 7.52218 12.951 7.45096C13.0222 7.37974 13.107 7.3236 13.2004 7.28588C13.2938 7.24816 13.3938 7.22963 13.4945 7.23141C13.5952 7.23319 13.6945 7.25523 13.7865 7.29622C13.8785 7.33721 13.9613 7.39631 14.03 7.47L18.03 11.47C18.1705 11.6106 18.2493 11.8013 18.2493 12C18.2493 12.1988 18.1705 12.3894 18.03 12.53L14.03 16.53C13.9613 16.6037 13.8785 16.6628 13.7865 16.7038C13.6945 16.7448 13.5952 16.7668 13.4945 16.7686C13.3938 16.7704 13.2938 16.7518 13.2004 16.7141C13.107 16.6764 13.0222 16.6203 12.951 16.549C12.8797 16.4778 12.8236 16.393 12.7859 16.2996C12.7482 16.2062 12.7296 16.1062 12.7314 16.0055C12.7332 15.9048 12.7552 15.8055 12.7962 15.7135C12.8372 15.6215 12.8963 15.5387 12.97 15.47L15.69 12.75H3C2.80109 12.75 2.61033 12.671 2.46967 12.5303C2.32902 12.3897 2.25 12.1989 2.25 12C2.25 11.8011 2.32902 11.6103 2.46967 11.4697C2.61033 11.329 2.80109 11.25 3 11.25H15.69L12.97 8.53Z" fill="#7C4D34"/>
</svg>
